<?xml version="1.0" standalone="no"?><svg xmlns="http://www.w3.org/2000/svg" viewBox="0 0 1440 320"><path fill="#536DFE" fill-opacity="1" d="M0,96L34.3,96C68.6,96,137,96,206,112C274.3,128,343,160,411,165.3C480,171,549,149,617,144C685.7,139,754,149,823,154.7C891.4,160,960,160,1029,186.7C1097.1,213,1166,267,1234,277.3C1302.9,288,1371,256,1406,240L1440,224L1440,0L1405.7,0C1371.4,0,1303,0,1234,0C1165.7,0,1097,0,1029,0C960,0,891,0,823,0C754.3,0,686,0,617,0C548.6,0,480,0,411,0C342.9,0,274,0,206,0C137.1,0,69,0,34,0L0,0Z"></path></svg>